<svg xmlns="http://www.w3.org/2000/svg" version="1.1" xmlns:xlink="http://www.w3.org/1999/xlink" xmlns:svgjs="http://svgjs.dev/svgjs" width="1000" height="623" viewBox="0 0 1000 623"><g transform="matrix(1,0,0,1,-0.6060334795925542,0.2522267206477409)"><svg viewBox="0 0 396 247" data-background-color="#ffffff" preserveAspectRatio="xMidYMid meet" height="623" width="1000" xmlns="http://www.w3.org/2000/svg" xmlns:xlink="http://www.w3.org/1999/xlink"><g id="tight-bounds" transform="matrix(1,0,0,1,0.23998933211748863,-0.09999999999999432)"><svg viewBox="0 0 395.52 247.2" height="247.2" width="395.52"><g><svg></svg></g><g><svg viewBox="0 0 395.52 247.2" height="247.2" width="395.52"><g><g><path xmlns="http://www.w3.org/2000/svg" d="M86.23 206.395c-17.046 0-31.982-3.49-44.807-10.471-6.056-3.296-11.467-7.146-16.233-11.549l37.63 0c0.301 0.233 0.604 0.463 0.909 0.688 7.533 5.617 16.007 8.426 25.423 8.426 6.007 0 11.413-0.779 16.218-2.338 4.773-1.526 9.351-3.507 13.735-5.942l0.56-0.834 22.862 0-0.775 9.357c-6.656 3.896-14.643 6.981-23.962 9.254-9.351 2.273-19.871 3.409-31.56 3.409zM56.667 47.38c10.617-4.383 21.77-6.575 33.459-6.575 8.604 0 15.747 0.487 21.43 1.461 5.682 0.974 10.796 2.354 15.341 4.14 4.546 1.786 9.091 3.815 13.637 6.088l0.608 10.331-23.89 0-1.557-2.539c-4.059-2.597-7.874-4.464-11.445-5.601-3.572-1.136-7.874-1.705-12.906-1.704-9.903 0-18.783 2.955-26.641 8.864-0.425 0.32-0.845 0.647-1.259 0.98l-32.026 0c7.539-6.472 15.955-11.62 25.249-15.445zM230.635 203.96h-58.201v-3.896l20.699-9.984 0.22-5.706 16.259 0-0.163 5.949 21.185 9.741zM198.247 57.12l-21.429-9.984v-3.896h60.391l8.466 19.585-47.647 0zM334.615 43.24h58.444v3.896l-21.186 7.549 0.249 8.14-45.888 0zM376.013 190.08l18.507 9.984v3.896h-73.785v-3.896l19.481-9.741-0.125-5.948 35.747 0zM282.26 205.177h-13.637l-8.96-20.802h31.446z" fill="#000000" fill-rule="nonzero" stroke="none" stroke-width="1" stroke-linecap="butt" stroke-linejoin="miter" stroke-miterlimit="10" stroke-dasharray="" stroke-dashoffset="0" font-family="none" font-weight="none" font-size="none" text-anchor="none" style="mix-blend-mode: normal" data-fill-palette-color="tertiary"></path></g></g><g transform="matrix(1,0,0,1,0,71.45335488151062)"><svg viewBox="0 0 395.52 104.29329023697875" height="104.29329023697875" width="395.52"><g><svg viewBox="0 0 395.52 104.29329023697875" height="104.29329023697875" width="395.52"><g><svg viewBox="0 0 395.52 104.29329023697875" height="104.29329023697875" width="395.52"><g><svg viewBox="0 0 395.52 104.29329023697875" height="104.29329023697875" width="395.52"><g><svg viewBox="0 0 395.52 104.29329023697875" height="104.29329023697875" width="395.52"><g><svg viewBox="0 0 395.52 59.12572777340676" height="59.12572777340676" width="395.52"><g transform="matrix(1,0,0,1,0,0)"><svg width="395.52" viewBox="2.450000047683716 -37.5 254.1800079345703 38" height="59.12572777340676" data-palette-color="#551e19"><path d="M19.95 0.5L19.95 0.5Q14.7 0.5 10.75-1.65 6.8-3.8 4.63-7.48 2.45-11.15 2.45-15.8L2.45-15.8Q2.45-19.55 3.95-22.75 5.45-25.95 8.03-28.38 10.6-30.8 13.88-32.15 17.15-33.5 20.75-33.5L20.75-33.5Q23.4-33.5 25.15-33.2 26.9-32.9 28.3-32.35 29.7-31.8 31.1-31.1L31.1-31.1 31.65-21.75 30.75-21.75 26-29.5Q24.75-30.3 23.65-30.65 22.55-31 21-31L21-31Q17.95-31 15.53-29.18 13.1-27.35 11.7-24.03 10.3-20.7 10.3-16.3L10.3-16.3Q10.3-11.95 11.65-8.78 13-5.6 15.33-3.88 17.65-2.15 20.55-2.15L20.55-2.15Q22.4-2.15 23.88-2.63 25.35-3.1 26.7-3.85L26.7-3.85 31.2-10.55 32.05-10.55 31.35-2.1Q29.3-0.9 26.43-0.2 23.55 0.5 19.95 0.5ZM50.35 0L37 0 37-0.8 40.35-2.4 40.35-31.8 37.15-34.15 37.15-34.75 46.8-37.5 47.4-37.5 47.4-2.4 50.35-0.8 50.35 0ZM65.55 0.5L65.55 0.5Q62 0.5 59.3-1.13 56.6-2.75 55.1-5.45 53.6-8.15 53.6-11.4L53.6-11.4Q53.6-14.7 55.1-17.4 56.6-20.1 59.3-21.7 62-23.3 65.55-23.3L65.55-23.3Q69.1-23.3 71.77-21.7 74.45-20.1 75.95-17.4 77.45-14.7 77.45-11.4L77.45-11.4Q77.45-8.15 75.95-5.45 74.45-2.75 71.77-1.13 69.1 0.5 65.55 0.5ZM66.1-1.95L66.1-1.95Q67.55-1.95 68.47-3.13 69.4-4.3 69.82-6.25 70.25-8.2 70.25-10.4L70.25-10.4Q70.25-13.1 69.72-15.5 69.2-17.9 68.07-19.4 66.95-20.9 65.1-20.9L65.1-20.9Q63.6-20.9 62.65-19.73 61.7-18.55 61.25-16.63 60.8-14.7 60.8-12.45L60.8-12.45Q60.8-9.7 61.35-7.33 61.9-4.95 63.07-3.45 64.25-1.95 66.1-1.95ZM90.24 0.5L90.24 0.5Q87.19 0.5 85.24-0.8 83.29-2.1 83.29-4.45L83.29-4.45 83.29-20.55 79.69-20.55 79.69-21.25 84.29-22.8 89.34-28.3 90.29-28.3 90.29-22.8 97.24-22.8 97.24-20.55 90.29-20.55 90.29-5.7Q90.29-4.4 91.39-3.8 92.49-3.2 93.99-3.2L93.99-3.2Q94.94-3.2 95.67-3.33 96.39-3.45 97.09-3.6L97.09-3.6 97.24-3.5 97.24-2.65Q96.39-1.45 94.49-0.48 92.59 0.5 90.24 0.5ZM112.94 0L100.04 0 100.04-0.8 103.39-2.4 103.39-31.8 100.19-34.15 100.19-34.75 109.79-37.5 110.39-37.5 110.39-19.6 110.59-19.6Q112.39-21.35 114.09-22.33 115.79-23.3 118.09-23.3L118.09-23.3Q121.14-23.3 123.07-21.75 124.99-20.2 124.99-17.15L124.99-17.15 124.99-2.4 128.34-0.8 128.34 0 115.44 0 115.44-0.8 117.94-2.35 117.94-15.1Q117.94-16.85 116.92-17.78 115.89-18.7 114.34-18.7L114.34-18.7Q113.39-18.7 112.27-18.35 111.14-18 110.39-17.35L110.39-17.35 110.39-2.35 112.94-0.8 112.94 0ZM155.94 0L143.99 0 143.99-0.8 148.24-2.85 149.29-30.15 144.89-32.2 144.89-33 157.29-33 167.34-9.75 177.29-33 189.29-33 189.29-32.2 184.94-30.65 185.79-2.85 189.59-0.8 189.59 0 174.44 0 174.44-0.8 178.44-2.8 177.94-26.55 166.54 0.25 163.74 0.25 152.24-26.45 151.59-2.8 155.94-0.8 155.94 0ZM199.18 0.45L199.18 0.45Q196.73 0.45 194.98-1.03 193.23-2.5 193.33-5.3L193.33-5.3Q193.33-7.1 194.03-8.38 194.73-9.65 196.48-10.6 198.23-11.55 201.38-12.35L201.38-12.35 206.08-13.5 206.08-16.6Q206.08-18.5 204.93-19.65 203.78-20.8 201.98-20.8L201.98-20.8Q200.38-20.8 199.68-20.1 198.98-19.4 198.98-18L198.98-18 198.98-15.7 198.78-15.5 195.48-15.5Q194.73-15.5 194.43-15.85 194.13-16.2 194.13-17.05L194.13-17.05Q194.13-18.15 195.01-19.2 195.88-20.25 197.33-21.15L197.33-21.15Q199.13-22.3 200.71-22.8 202.28-23.3 204.13-23.3L204.13-23.3Q206.58-23.3 208.63-22.65 210.68-22 211.91-20.58 213.13-19.15 213.13-16.9L213.13-16.9 213.13-3.7Q213.93-2.9 215.53-2.9L215.53-2.9 216.98-2.9 217.13-2.75 217.13-2.05Q216.58-1.1 215.26-0.3 213.93 0.5 211.83 0.5L211.83 0.5Q209.73 0.5 208.41-0.38 207.08-1.25 206.38-2.9L206.38-2.9 206.08-2.9Q204.83-1.5 203.08-0.53 201.33 0.45 199.18 0.45ZM199.93-6.7L199.93-6.7Q199.93-5.1 200.81-4.33 201.68-3.55 203.23-3.55L203.23-3.55Q204.58-3.55 206.08-4.15L206.08-4.15 206.08-11.5Q203.58-10.95 202.26-10.3 200.93-9.65 200.43-8.8 199.93-7.95 199.93-6.7ZM233.38 0L218.98 0 218.98-0.8 222.28-2.4 222.28-17.3 219.13-19.65 219.13-20.25 228.23-23.3 228.83-23.3 229.28-18.8 229.53-18.8Q230.73-20.7 231.68-21.68 232.63-22.65 233.48-22.98 234.33-23.3 235.33-23.3L235.33-23.3Q235.73-23.3 236.26-23.18 236.78-23.05 237.18-22.9L237.18-22.9Q238.68-22.45 238.68-21.5L238.68-21.5Q238.68-21.05 238.48-20.65L238.48-20.65 237.28-17.4 236.93-17.4 235.63-17.85Q234.33-18.3 232.98-18.3L232.98-18.3Q230.88-18.3 229.33-16.35L229.33-16.35 229.33-2.4 233.38-0.8 233.38 0ZM249.63 0.5L249.63 0.5Q246.58 0.5 244.63-0.8 242.68-2.1 242.68-4.45L242.68-4.45 242.68-20.55 239.08-20.55 239.08-21.25 243.68-22.8 248.73-28.3 249.68-28.3 249.68-22.8 256.63-22.8 256.63-20.55 249.68-20.55 249.68-5.7Q249.68-4.4 250.78-3.8 251.88-3.2 253.38-3.2L253.38-3.2Q254.33-3.2 255.05-3.33 255.78-3.45 256.48-3.6L256.48-3.6 256.63-3.5 256.63-2.65Q255.78-1.45 253.88-0.48 251.98 0.5 249.63 0.5Z" opacity="1" transform="matrix(1,0,0,1,0,0)" fill="#000000" class="undefined-text-0" data-fill-palette-color="primary" id="text-0"></path></svg></g></svg></g><g transform="matrix(1,0,0,1,0,67.75359047301336)"><svg viewBox="0 0 395.52 36.53969976396537" height="36.53969976396537" width="395.52"><g transform="matrix(1,0,0,1,0,0)"><svg width="395.52" viewBox="1.75 -37.5 541.219970703125 50" height="36.53969976396537" data-palette-color="#551e19"><path d="M1.75 0L11.4 0 11.4-1.95 7.5-1.95 7.5-37.5 1.9-37.5 1.9-35.55 5.45-35.55 5.45-1.95 1.75-1.95 1.75 0ZM64.87-17.15L64.87-17.15Q66.82-17.15 68.4-16.07 69.97-15 70.87-13.3L70.87-13.3Q67.47-11.95 64.1-10.63 60.72-9.3 57.32-7.95L57.32-7.95Q56.97-9.65 57.37-11.28 57.77-12.9 58.77-14.2L58.77-14.2Q59.82-15.55 61.4-16.35 62.97-17.15 64.87-17.15ZM71.42-2.25L71.42-2.25 70.17-3.75Q69.12-2.75 67.77-2.2 66.42-1.65 64.87-1.65L64.87-1.65Q62.52-1.65 60.67-2.85 58.82-4.05 57.92-6L57.92-6Q61.82-7.6 65.7-9.1 69.57-10.6 73.47-12.15L73.47-12.15Q72.97-13.65 72.17-14.93 71.37-16.2 70.32-17.1L70.32-17.1Q69.22-18.1 67.82-18.63 66.42-19.15 64.87-19.15L64.87-19.15Q62.82-19.15 61.05-18.38 59.27-17.6 57.92-16.3L57.92-16.3Q56.57-15 55.82-13.2 55.07-11.4 55.07-9.4L55.07-9.4Q55.07-7.35 55.82-5.6 56.57-3.85 57.92-2.5L57.92-2.5Q59.27-1.15 61.05-0.4 62.82 0.35 64.87 0.35L64.87 0.35Q66.82 0.35 68.47-0.35 70.12-1.05 71.42-2.25ZM121.65 0L127.8 0 127.8-1.95 123.7-1.95 123.7-16.75 129.5-16.75 129.5-18.75 123.7-18.75 123.7-30.95 121.65-30.95 121.65-18.75 117.3-18.75 117.3-16.75 121.65-16.75 121.65 0ZM174.27-23.6L176.27-23.6Q176.32-26.75 176.37-29.8 176.42-32.85 176.47-36L176.47-36 174.27-36 174.27-23.6ZM232.45-1.6L232.45-1.6Q233.15-2.4 233.47-3.38 233.8-4.35 233.8-5.25L233.8-5.25Q233.8-6.85 233.12-7.8 232.45-8.75 231.45-9.35L231.45-9.35Q230.4-9.95 229.22-10.33 228.05-10.7 227-11.15L227-11.15Q226-11.55 225.27-12.18 224.55-12.8 224.55-13.9L224.55-13.9Q224.55-14.75 224.85-15.35 225.15-15.95 225.6-16.35L225.6-16.35Q226.1-16.7 226.77-16.88 227.45-17.05 228.1-17.05L228.1-17.05Q228.95-17.05 229.7-16.85 230.45-16.65 231.15-16.25L231.15-16.25 231.15-13.65 233.05-13.65 233.05-17.3Q232.55-17.75 231.95-18.07 231.35-18.4 230.7-18.65L230.7-18.65Q229.9-18.9 229.3-18.98 228.7-19.05 228.05-19.05L228.05-19.05Q227.15-19.05 226.1-18.73 225.05-18.4 224.25-17.75L224.25-17.75Q223.45-17.1 222.97-16.15 222.5-15.2 222.5-13.85L222.5-13.85Q222.5-12.2 223.17-11.28 223.85-10.35 224.9-9.85L224.9-9.85Q225.95-9.35 227.15-9 228.35-8.65 229.35-8.2L229.35-8.2Q230.4-7.8 231.05-7.1 231.7-6.4 231.7-5.1L231.7-5.1Q231.7-4.2 231.37-3.58 231.05-2.95 230.5-2.5L230.5-2.5Q229.9-2.05 229.2-1.83 228.5-1.6 227.75-1.6L227.75-1.6Q226.65-1.6 225.65-1.78 224.65-1.95 223.7-2.55L223.7-2.55 223.7-5.1 221.85-5.1 221.85-1.45Q223-0.35 224.52 0.03 226.05 0.4 227.65 0.4L227.65 0.4Q229.35 0.4 230.52-0.15 231.7-0.7 232.45-1.6ZM343.9-1.6L343.9-1.6Q344.6-2.4 344.92-3.38 345.25-4.35 345.25-5.25L345.25-5.25Q345.25-6.85 344.57-7.8 343.9-8.75 342.9-9.35L342.9-9.35Q341.85-9.95 340.67-10.33 339.5-10.7 338.45-11.15L338.45-11.15Q337.45-11.55 336.72-12.18 336-12.8 336-13.9L336-13.9Q336-14.75 336.3-15.35 336.6-15.95 337.05-16.35L337.05-16.35Q337.55-16.7 338.22-16.88 338.9-17.05 339.55-17.05L339.55-17.05Q340.4-17.05 341.15-16.85 341.9-16.65 342.6-16.25L342.6-16.25 342.6-13.65 344.5-13.65 344.5-17.3Q344-17.75 343.4-18.07 342.8-18.4 342.15-18.65L342.15-18.65Q341.35-18.9 340.75-18.98 340.15-19.05 339.5-19.05L339.5-19.05Q338.6-19.05 337.55-18.73 336.5-18.4 335.7-17.75L335.7-17.75Q334.9-17.1 334.42-16.15 333.95-15.2 333.95-13.85L333.95-13.85Q333.95-12.2 334.62-11.28 335.3-10.35 336.35-9.85L336.35-9.85Q337.4-9.35 338.6-9 339.8-8.65 340.8-8.2L340.8-8.2Q341.85-7.8 342.5-7.1 343.15-6.4 343.15-5.1L343.15-5.1Q343.15-4.2 342.82-3.58 342.5-2.95 341.95-2.5L341.95-2.5Q341.35-2.05 340.65-1.83 339.95-1.6 339.2-1.6L339.2-1.6Q338.1-1.6 337.1-1.78 336.1-1.95 335.15-2.55L335.15-2.55 335.15-5.1 333.3-5.1 333.3-1.45Q334.45-0.35 335.97 0.03 337.5 0.4 339.1 0.4L339.1 0.4Q340.8 0.4 341.97-0.15 343.15-0.7 343.9-1.6ZM388.72 0L398.37 0 398.37-1.95 394.67-1.95 394.67-10.25Q394.67-11.75 395.3-13 395.92-14.25 397.02-15.2L397.02-15.2Q398.02-16.1 399.42-16.6 400.82-17.1 402.37-17.1L402.37-17.1Q404.47-17 405.55-15.83 406.62-14.65 406.72-13L406.72-13 406.72-1.95 402.82-1.95 402.82 0 412.47 0 412.47-1.95 408.77-1.95 408.77-13.55Q408.67-16.05 407.07-17.6 405.47-19.15 402.72-19.15L402.72-19.15Q399.87-19.1 397.72-17.7 395.57-16.3 394.52-13.9L394.52-13.9 394.67-16.15 394.67-37.5 388.92-37.5 388.92-35.55 392.62-35.55 392.62-1.95 388.72-1.95 388.72 0ZM473.05-2.5L473.05-2.5Q474.35-3.85 475.12-5.6 475.9-7.35 475.9-9.4L475.9-9.4Q475.9-11.4 475.12-13.2 474.35-15 473.05-16.35L473.05-16.35Q471.7-17.65 469.87-18.43 468.05-19.2 466-19.2L466-19.2Q463.95-19.2 462.15-18.43 460.35-17.65 459.05-16.35L459.05-16.35Q457.7-15 456.95-13.2 456.2-11.4 456.2-9.4L456.2-9.4Q456.2-7.35 456.95-5.58 457.7-3.8 459.05-2.5L459.05-2.5Q460.35-1.15 462.12-0.4 463.9 0.35 466 0.35L466 0.35Q468.05 0.35 469.87-0.4 471.7-1.15 473.05-2.5ZM460.5-3.95L460.5-3.95Q459.45-4.95 458.85-6.35 458.25-7.75 458.25-9.4L458.25-9.4Q458.25-11 458.85-12.4 459.45-13.8 460.5-14.9L460.5-14.9Q461.55-15.95 462.95-16.55 464.35-17.15 465.95-17.15L465.95-17.15Q467.55-17.15 468.97-16.55 470.4-15.95 471.45-14.9L471.45-14.9Q472.55-13.8 473.15-12.4 473.75-11 473.75-9.4L473.75-9.4Q473.75-7.75 473.15-6.35 472.55-4.95 471.45-3.95L471.45-3.95Q470.4-2.85 468.97-2.25 467.55-1.65 465.95-1.65L465.95-1.65Q464.35-1.65 462.95-2.25 461.55-2.85 460.5-3.95ZM519.97 10.55L519.97 12.5 529.62 12.5 529.62 10.55 525.37 10.55 525.37-2.25Q525.37-2.7 525.34-3.18 525.32-3.65 525.32-4.15L525.32-4.15Q525.67-3.25 526.34-2.48 527.02-1.7 528.07-1.05L528.07-1.05Q529.07-0.35 530.37 0.03 531.67 0.4 533.17 0.4L533.17 0.4Q535.17 0.4 536.97-0.38 538.77-1.15 540.12-2.45L540.12-2.45Q541.47-3.75 542.22-5.55 542.97-7.35 542.97-9.35L542.97-9.35Q542.97-11.35 542.22-13.13 541.47-14.9 540.12-16.25L540.12-16.25Q538.77-17.6 536.97-18.35 535.17-19.1 533.17-19.1L533.17-19.1Q530.17-19.1 528.07-17.65 525.97-16.2 525.12-14.25L525.12-14.25Q525.12-15.35 525.04-16.48 524.97-17.6 524.97-18.75L524.97-18.75 519.57-18.75 519.57-16.8 523.32-16.8 523.32 10.55 519.97 10.55ZM533.17-17.1L533.17-17.1Q534.72-17.1 536.12-16.53 537.52-15.95 538.57-15L538.57-15Q539.67-13.95 540.29-12.5 540.92-11.05 540.92-9.35L540.92-9.35Q540.92-7.7 540.29-6.25 539.67-4.8 538.57-3.75L538.57-3.75Q537.52-2.75 536.12-2.18 534.72-1.6 533.17-1.6L533.17-1.6Q531.52-1.6 530.12-2.18 528.72-2.75 527.67-3.75L527.67-3.75Q526.57-4.85 525.97-6.28 525.37-7.7 525.37-9.35L525.37-9.35Q525.37-10.95 525.94-12.38 526.52-13.8 527.57-14.85L527.57-14.85Q528.62-15.9 530.04-16.5 531.47-17.1 533.17-17.1Z" opacity="1" transform="matrix(1,0,0,1,0,0)" fill="#000000" class="undefined-text-1" data-fill-palette-color="secondary" id="text-1"></path></svg></g></svg></g></svg></g></svg></g><g></g></svg></g></svg></g></svg></g></svg></g><defs></defs></svg><rect width="395.52" height="247.2" fill="none" stroke="none" visibility="hidden"></rect></g></svg></g></svg>